Coordinates
version=1
nRows=14
nColumns=40
inDegrees=yes

Units are S.I. units (second, meters, Newtons, ...)
Angles are in degrees.

endheader
time	pelvis_tilt	pelvis_list	pelvis_rotation	pelvis_tx	pelvis_ty	pelvis_tz	hip_flexion_r	hip_adduction_r	hip_rotation_r	knee_angle_r	knee_angle_r_beta	ankle_angle_r	subtalar_angle_r	mtp_angle_r	hip_flexion_l	hip_adduction_l	hip_rotation_l	knee_angle_l	knee_angle_l_beta	ankle_angle_l	subtalar_angle_l	mtp_angle_l	lumbar_extension	lumbar_bending	lumbar_rotation	arm_flex_r	arm_add_r	arm_rot_r	elbow_flex_r	pro_sup_r	wrist_flex_r	wrist_dev_r	arm_flex_l	arm_add_l	arm_rot_l	elbow_flex_l	pro_sup_l	wrist_flex_l	wrist_dev_l
     47.72500000	     -5.44932810	     -5.33642494	     10.20034345	      0.96881867	      0.91796776	      0.45811596	      0.21919860	      2.41868457	    -17.78029903	     16.22134634	     16.22134634	     17.74337489	     -5.12004215	     -1.12223702	     29.02754850	     -4.02045593	      3.13783530	     23.95414624	     23.95414624	      4.47423267	     -9.06081405	     -3.34434398	     -8.02185600	      2.12033545	      3.58527583	     58.57571101	    -17.75037307	     -8.00029602	     69.07288117	     44.78799182	      0.00000000	      0.00000000	    -13.89168568	     -8.89716124	     18.22148886	     29.54259037	     42.68891403	      0.00000000	      0.00000000
     47.74485714	     -5.39334900	     -5.42855343	      9.90183425	      0.96992531	      0.91899301	      0.45467480	     -0.00168755	      2.21355717	    -17.62528699	     16.77170035	     16.77170035	     17.36556818	     -5.11769910	     -1.08646249	     28.56879073	     -4.05807940	      3.08680024	     24.29635768	     24.29635768	      5.23076236	     -9.32013130	     -3.55642111	     -8.03068782	      2.02781953	      3.57927016	     58.03924957	    -17.46432501	     -7.93419796	     68.84904145	     44.79189254	      0.00000000	      0.00000000	    -13.08930074	     -9.27014641	     18.11470292	     29.68856650	     42.72054476	      0.00000000	      0.00000000
     47.76471429	     -5.42421009	     -5.33623286	      9.53222733	      0.97066076	      0.91965286	      0.45149308	      0.53386849	      1.63863269	    -17.08707056	     18.63086713	     18.63086713	     17.09829276	     -6.07190293	     -1.79601718	     28.42190709	     -4.03650400	      2.46793940	     25.17973743	     25.17973743	      7.22357180	     -8.41952855	     -1.01379754	     -7.89962475	      1.68373092	      4.06513043	     57.27524683	    -17.30071874	     -9.08299076	     68.22942467	     44.90684337	      0.00000000	      0.00000000	    -11.59159174	     -9.38874911	     17.16947079	     28.68102573	     43.10774159	      0.00000000	      0.00000000
     47.78457143	     -5.34265840	     -5.54468259	      9.25078353	      0.97160866	      0.92088063	      0.44819739	      0.46962459	      1.52517209	    -16.99758702	     19.40741403	     19.40741403	     16.48567906	     -6.10206520	     -1.77445743	     27.81145861	     -4.18948959	      2.41941537	     25.22192900	     25.22192900	      7.87221994	     -8.61126973	     -1.22502403	     -7.98229728	      1.77349787	      3.83660594	     56.57275984	    -16.94420181	     -8.95480210	     68.03046260	     44.90654027	      0.00000000	      0.00000000	    -10.71365959	     -9.72005396	     17.08266966	     28.88531824	     43.13722783	      0.00000000	      0.00000000
     47.80442857	     -5.29633466	     -5.26780324	      8.85030533	      0.97209284	      0.92160336	      0.44487497	      1.42425915	      0.59053406	    -16.46801725	     22.23376828	     22.23376828	     16.24966981	     -7.28266597	     -2.61546995	     27.12368465	     -3.92470177	      1.90914509	     25.21139031	     25.21139031	      8.34034261	     -8.58041736	     -1.41992261	     -7.96486088	      1.32321366	      3.81273471	     55.56077580	    -16.54736365	     -8.89113655	     67.71612718	     44.91644805	      0.00000000	      0.00000000	     -9.50658733	    -10.13072813	     16.88873622	     28.96707525	     43.20845220	      0.00000000	      0.00000000
     47.82428571	     -5.31770076	     -5.29240111	      8.49654987	      0.97256041	      0.92233103	      0.44162386	      2.24563791	      0.14867230	    -15.80382203	     24.35507696	     24.35507696	     14.76487367	     -9.15973740	     -5.15857452	     26.58471359	     -3.85972813	      1.78303720	     25.19872060	     25.19872060	      8.72520211	     -8.97789233	     -1.55676018	     -7.84907758	      1.26512563	      3.92684958	     54.18876383	    -16.28887314	     -9.36324118	     67.65342758	     44.95881789	      0.00000000	      0.00000000	     -7.82337069	    -10.26167787	     16.46148443	     28.14947364	     43.41313931	      0.00000000	      0.00000000
     47.84414286	     -5.13222550	     -5.16537549	      8.14641569	      0.97308030	      0.92333838	      0.43820172	      3.06124832	     -0.60764159	    -15.55004287	     27.03550404	     27.03550404	     14.00000091	    -10.03464166	     -5.93789249	     25.72706429	     -3.71064126	      1.41339925	     25.07014469	     25.07014469	      9.15345684	     -9.01222713	     -1.72151556	     -8.00005630	      1.11177920	      3.61587029	     52.87744491	    -15.78104732	     -9.23961200	     67.33278130	     44.96387882	      0.00000000	      0.00000000	     -6.56281144	    -10.57341242	     16.34469720	     28.28129224	     43.46845247	      0.00000000	      0.00000000
     47.86400000	     -5.06654910	     -5.09130623	      7.78440496	      0.97342177	      0.92401764	      0.43476211	      4.10111109	     -1.24134087	    -14.98766177	     29.62163012	     29.62163012	     11.47187301	    -12.56197714	    -10.49075534	     25.01014444	     -3.48252655	      1.43468144	     24.90812523	     24.90812523	      9.30053651	     -9.75167553	     -1.95807317	     -7.95978006	      1.04712165	      3.80951699	     50.97986229	    -15.65961432	     -9.81246676	     67.38511218	     45.01262440	      0.00000000	      0.00000000	     -4.43968256	    -10.53465422	     16.11469935	     27.00496456	     43.67908015	      0.00000000	      0.00000000
     47.88385714	     -4.89406344	     -4.94560326	      7.41322645	      0.97377302	      0.92469141	      0.43121271	      5.34548617	     -2.11361355	    -14.71360856	     32.97171719	     32.97171719	     10.33303734	    -13.71263074	    -11.10658921	     24.23498556	     -3.27654821	      1.07466036	     24.87527713	     24.87527713	      9.69133396	     -9.85877378	     -2.11257594	     -8.05840346	      0.98640325	      3.45289034	     49.30382821	    -15.11545519	     -9.62018653	     66.85636868	     45.02018993	      0.00000000	      0.00000000	     -3.03193075	    -10.81196277	     16.03421694	     27.29282850	     43.72904982	      0.00000000	      0.00000000
     47.90371429	     -4.76060858	     -4.81230554	      7.05476103	      0.97399771	      0.92519597	      0.42758477	      6.71012267	     -2.94140738	    -14.33685277	     36.27016963	     36.27016963	      8.10735077	    -15.80497373	    -13.54271197	     23.51350793	     -2.95901161	      1.10014506	     24.82841778	     24.82841778	      9.90138136	    -10.64012224	     -2.12028159	     -8.08594977	      0.97256574	      3.50438418	     47.09497465	    -14.94833184	     -9.80283828	     66.33655335	     45.06466709	      0.00000000	      0.00000000	     -0.93606682	    -10.81584694	     16.11350150	     26.54562648	     43.85449377	      0.00000000	      0.00000000
     47.92357143	     -4.49737760	     -4.64386998	      6.64214383	      0.97424007	      0.92551996	      0.42399104	      8.14462871	     -3.86152600	    -13.99177154	     39.98420538	     39.98420538	      6.68751862	    -16.97446810	    -13.63844178	     22.75585902	     -2.70739311	      0.79810995	     24.99303766	     24.99303766	     10.34627923	    -10.92025235	     -2.25785262	     -8.25889842	      1.03063927	      3.15990828	     45.14303929	    -14.47587406	     -9.61617625	     65.57071741	     45.07821270	      0.00000000	      0.00000000	      0.65242190	    -11.00039887	     16.06398724	     26.92647753	     43.89956500	      0.00000000	      0.00000000
     47.94342857	     -4.29128706	     -4.46795762	      6.23316910	      0.97435770	      0.92553446	      0.42033969	      9.76007534	     -4.80890474	    -13.62767742	     43.78204494	     43.78204494	      5.21085693	    -17.99257005	    -13.28922188	     22.12692292	     -2.39340392	      0.61556665	     25.25084088	     25.25084088	     10.74912095	    -11.41175504	     -2.29270984	     -8.36202850	      1.12207612	      2.96055579	     42.89403882	    -14.15357968	     -9.44658686	     64.52948442	     45.10074495	      0.00000000	      0.00000000	      2.38824305	    -11.12781077	     16.03586600	     27.26096040	     43.94493609	      0.00000000	      0.00000000
     47.96328571	     -4.10410551	     -4.33917500	      5.81945823	      0.97431204	      0.92528617	      0.41680040	     11.63888142	     -5.56179323	    -12.97797385	     47.88574355	     47.88574355	      5.19258269	    -18.26137691	     -8.06985115	     21.62735468	     -2.05073998	      0.70628859	     25.67941199	     25.67941199	     11.33763488	    -12.29656510	     -1.61874778	     -8.40103796	      1.28548084	      3.14896441	     40.38731533	    -14.23920530	     -9.46300848	     63.03286671	     45.16618160	      0.00000000	      0.00000000	      4.86762062	    -10.93568862	     16.55799093	     26.33054024	     43.99751268	      0.00000000	      0.00000000
     47.98314286	     -3.79435310	     -4.12098063	      5.38266229	      0.97437468	      0.92478069	      0.41328266	     13.19063247	     -6.49710167	    -12.56388975	     51.42534159	     51.42534159	      3.90302516	    -18.72695048	     -7.26780769	     21.07862122	     -1.72783264	      0.40984094	     26.28045957	     26.28045957	     11.88336843	    -12.71028648	     -1.76969664	     -8.63649120	      1.40385590	      2.87464236	     37.90392691	    -13.91397124	     -9.24334775	     61.79004843	     45.19183606	      0.00000000	      0.00000000	      6.62949831	    -11.06589146	     16.51630815	     26.94306150	     44.04251658	      0.00000000	      0.00000000
